<?xml version="1.0" standalone="no"?>
<!DOCTYPE svg PUBLIC "-//W3C//DTD SVG 20010904//EN"
 "http://www.w3.org/TR/2001/REC-SVG-20010904/DTD/svg10.dtd">
<svg version="1.0" xmlns="http://www.w3.org/2000/svg"
 width="500.000000pt" height="500.000000pt" viewBox="0 0 500.000000 500.000000"
 preserveAspectRatio="xMidYMid meet">

<g transform="translate(0.000000,500.000000) scale(0.100000,-0.100000)"
fill="#000000" stroke="none">
<path d="M2354 3642 c-8 -5 -2 -59 22 -192 19 -102 34 -190 34 -196 0 -16
-102 -34 -118 -21 -11 8 -18 6 -30 -9 -10 -11 -57 -40 -107 -63 -165 -81 -313
-256 -366 -436 -11 -38 -22 -75 -24 -81 -2 -7 -61 6 -167 36 -89 26 -164 47
-165 46 -3 -3 216 -928 225 -949 6 -14 30 4 141 107 l135 125 63 -59 c34 -32
83 -71 108 -86 34 -20 44 -31 39 -43 -15 -35 -15 -58 -2 -64 10 -3 19 6 27 30
10 26 17 33 29 28 77 -29 147 -48 221 -57 56 -7 96 -17 114 -30 27 -20 29 -20
42 -2 8 11 15 21 15 24 0 4 28 12 63 19 34 7 93 26 132 42 46 19 73 25 79 19
18 -18 36 -11 36 14 0 16 12 32 39 51 38 25 43 26 91 16 29 -6 56 -8 62 -5 7
4 8 30 4 70 -6 57 -4 66 20 101 64 94 124 253 124 330 0 24 10 42 40 72 36 36
40 44 40 91 0 46 -4 56 -34 86 -19 19 -40 34 -48 34 -9 0 -20 18 -27 43 -29
98 -94 200 -186 293 -77 78 -105 98 -185 138 -52 25 -130 54 -172 63 -68 16
-77 20 -73 38 2 11 11 92 20 180 9 88 18 170 21 183 3 17 0 22 -16 22 -11 0
-20 -4 -20 -8 0 -5 -9 -89 -20 -188 -11 -98 -20 -185 -20 -191 0 -9 -18 -13
-54 -13 -44 0 -56 4 -60 18 -2 9 -19 99 -37 200 -18 100 -35 182 -38 182 -3 0
-11 -4 -17 -8z m282 -443 c230 -42 446 -223 529 -443 21 -56 23 -66 9 -66 -26
0 -70 -37 -84 -70 -28 -67 18 -153 88 -166 l34 -7 -7 -46 c-21 -155 -88 -284
-206 -403 -48 -49 -94 -88 -102 -88 -10 0 -18 16 -23 47 -7 34 -14 49 -28 51
-16 4 -17 -1 -10 -40 15 -85 13 -91 -39 -116 -54 -26 -173 -59 -182 -51 -3 3
13 48 34 100 22 51 37 97 35 101 -15 23 -33 -3 -74 -102 -36 -88 -49 -110 -65
-110 -11 0 -56 36 -107 87 -69 69 -90 85 -100 75 -10 -10 3 -28 62 -88 l75
-76 -63 6 c-62 7 -174 37 -200 55 -11 7 -11 15 2 46 20 47 20 45 -3 45 -12 0
-24 -12 -33 -35 l-14 -35 -48 31 c-117 73 -228 209 -280 341 -31 80 -32 98 -6
105 22 6 22 6 14 26 -3 9 -13 13 -24 10 -27 -7 -34 29 -28 156 12 228 127 430
317 554 72 47 161 88 173 80 5 -2 22 -32 39 -65 27 -53 33 -59 45 -46 12 12
10 21 -16 71 l-31 56 23 5 c13 3 32 7 43 9 41 9 194 7 251 -4z m-880 -719 l1
-117 -53 -12 c-30 -7 -54 -14 -54 -16 0 -2 3 -10 6 -18 5 -14 11 -14 56 0 28
8 54 11 58 6 3 -4 12 -28 19 -53 15 -52 57 -138 96 -194 l26 -38 -78 -72
c-135 -125 -152 -139 -157 -124 -7 19 -196 822 -196 829 0 4 62 -12 138 -34
l137 -40 1 -117z m1477 169 c31 -16 57 -50 57 -77 0 -19 -2 -21 -19 -11 -10 7
-26 9 -35 6 -20 -8 -21 -46 -1 -53 25 -10 6 -24 -31 -24 -73 0 -113 90 -61
137 36 33 58 38 90 22z m-166 -673 c1 -33 0 -34 -32 -33 l-34 2 32 33 c17 17
31 32 31 32 1 0 2 -15 3 -34z"/>
<path d="M2648 3105 c-3 -3 6 -46 20 -95 20 -71 29 -90 44 -90 23 0 23 -6 -9
101 -24 79 -38 101 -55 84z"/>
<path d="M2111 2996 c-11 -13 1 -24 71 -69 75 -49 97 -55 98 -26 0 3 -24 22
-52 41 -112 74 -104 70 -117 54z"/>
<path d="M2471 2817 c-9 -12 0 -28 51 -85 35 -39 68 -69 73 -68 22 6 7 36 -51
100 -51 56 -63 65 -73 53z"/>
<path d="M1880 2722 c0 -16 15 -24 83 -42 105 -28 100 -28 104 -9 3 12 -15 21
-74 38 -43 12 -86 24 -95 27 -13 4 -18 0 -18 -14z"/>
<path d="M2782 2662 c-35 -33 -47 -68 -38 -115 14 -73 107 -118 174 -83 45 23
62 53 62 109 0 42 -5 54 -34 83 -30 30 -40 34 -84 34 -41 0 -55 -5 -80 -28z
m111 -13 c46 -23 74 -87 47 -104 -5 -3 -10 -1 -10 5 0 6 -10 10 -22 8 -27 -3
-38 -46 -16 -59 8 -6 0 -9 -25 -9 -75 0 -117 89 -64 137 36 33 58 38 90 22z"/>
<path d="M2120 2535 c0 -15 25 -21 133 -29 60 -5 67 -3 67 13 0 15 -11 19 -67
24 -106 10 -133 9 -133 -8z"/>
<path d="M3023 2413 c-24 -9 -13 -24 14 -21 19 2 28 -2 31 -14 2 -13 -3 -18
-17 -18 -12 0 -21 -4 -21 -10 0 -5 6 -10 14 -10 7 0 19 -6 25 -14 15 -18 -11
-40 -40 -33 -13 3 -19 1 -16 -6 6 -19 62 -20 81 -2 20 21 20 29 -1 51 -13 13
-14 19 -5 22 15 5 16 34 0 50 -12 12 -43 15 -65 5z"/>
<path d="M2501 2232 c-61 -56 -71 -69 -59 -79 11 -10 28 1 87 55 61 55 71 69
60 79 -12 9 -29 -2 -88 -55z"/>
<path d="M2056 2212 c-49 -62 -56 -76 -44 -88 11 -11 22 -2 71 61 59 77 65 90
45 98 -7 2 -39 -29 -72 -71z"/>
<path d="M2180 3596 c-52 -17 -97 -31 -99 -33 -5 -3 90 -286 99 -297 5 -4 52
6 105 24 73 24 95 36 91 47 -3 8 -6 16 -6 18 0 2 -32 -7 -72 -21 -39 -13 -75
-24 -80 -24 -9 0 -23 32 -33 73 -6 21 1 25 65 46 54 17 70 26 66 38 -3 8 -6
16 -6 18 0 2 -32 -7 -72 -21 -39 -13 -72 -23 -73 -21 -1 1 -9 23 -18 49 l-15
47 79 26 c43 15 79 30 79 33 -1 27 -21 27 -110 -2z"/>
<path d="M2669 3481 c-24 -80 -44 -150 -44 -156 0 -5 9 -10 19 -10 15 0 24 13
37 58 10 33 20 61 23 64 2 3 35 -5 71 -17 46 -15 70 -19 77 -12 17 17 1 29
-67 48 l-66 19 6 35 c13 70 15 71 101 44 41 -13 80 -22 85 -19 23 15 4 33 -48
48 -32 9 -79 23 -104 31 l-45 14 -45 -147z"/>
<path d="M1918 3494 c-13 -14 -9 -27 47 -132 34 -64 61 -119 59 -120 -1 -2
-51 23 -111 57 -90 50 -110 58 -121 47 -11 -11 -4 -32 42 -125 31 -61 53 -111
49 -111 -5 0 -57 29 -116 65 -60 36 -112 65 -116 65 -5 0 -14 -6 -20 -14 -10
-11 15 -29 135 -100 112 -65 151 -83 161 -74 20 16 17 27 -37 136 -27 56 -47
102 -44 102 4 0 51 -25 106 -55 80 -44 104 -53 119 -44 10 5 19 13 19 16 0 5
-147 291 -154 300 -1 2 -9 -4 -18 -13z"/>
<path d="M2938 3371 c-43 -71 -78 -133 -78 -139 0 -21 30 -21 44 1 135 207
162 267 121 267 -5 0 -45 -58 -87 -129z"/>
<path d="M3112 3347 c-27 -29 -28 -55 -1 -128 20 -55 21 -60 5 -84 -21 -32
-50 -32 -82 0 -19 19 -25 34 -23 60 4 37 -14 66 -30 50 -10 -11 -14 -36 -12
-73 0 -12 16 -39 35 -59 29 -32 40 -38 76 -38 34 0 47 6 66 28 30 35 30 55 2
134 -19 51 -20 64 -9 77 29 35 91 4 91 -45 0 -9 9 -19 20 -22 16 -4 20 0 20
19 0 33 -25 81 -49 94 -35 18 -86 12 -109 -13z"/>
<path d="M3240 3085 c-74 -35 -136 -67 -137 -72 -1 -4 1 -14 5 -21 7 -9 23 -6
73 17 l64 30 32 -67 c17 -37 32 -70 32 -73 1 -3 -26 -18 -59 -34 -57 -27 -75
-50 -47 -61 15 -5 287 121 287 133 0 4 -4 14 -9 21 -6 11 -21 7 -69 -17 l-62
-31 -35 70 c-19 38 -35 71 -35 74 0 2 29 16 65 32 46 19 64 32 60 41 -3 8 -5
17 -5 19 0 11 -36 -3 -160 -61z"/>
<path d="M1546 3029 c-53 -63 -25 -149 49 -149 27 0 46 10 85 45 70 62 120 59
120 -7 0 -34 -40 -78 -70 -78 -13 0 -20 -7 -20 -20 0 -41 76 -17 111 36 37 57
19 129 -39 153 -37 15 -65 5 -126 -48 -52 -45 -67 -49 -91 -25 -23 24 -1 84
31 84 8 0 14 9 14 20 0 30 -34 25 -64 -11z"/>
</g>
</svg>
